# xmcd
#
# Track frame offsets:
#	150
#	6357
#	20663
#	41194
#	56777
#	68221
#	89708
#	108301
#	124060
#	138582
#	152185
#	160442
#	170069
#	184258
#	192545
#	205033
#	223571
#	234948
#	248833
#	266548
#	288004
#	301714
#
# Disc length: 4162 seconds
#
# Revision: 1
# Processed by: cddbd v1.5.1PL2 Copyright (c) Steve Scherf et al.
# Submitted via: audiograbber 1.83.01
#
DISCID=48104016
DTITLE=Techno Classics - Techno Classics Vol. 1 CD 3 (Mix)
DYEAR=1996
DGENRE=Techno
TTITLE0=X - X
TTITLE1=X - X
TTITLE2=X  - X
TTITLE3=X - X
TTITLE4=X - X
TTITLE5=X - X
TTITLE6=X - X
TTITLE7=X - X
TTITLE8=X - X
TTITLE9=X - X
TTITLE10=X - X
TTITLE11=X - X
TTITLE12=X - X
TTITLE13=X - X
TTITLE14=X - X
TTITLE15=X - X
TTITLE16=X - X
TTITLE17=X - X
TTITLE18=X - X
TTITLE19=X - X
TTITLE20=X - X
TTITLE21=X - X
EXTD=
EXTT0=
EXTT1=
EXTT2=
EXTT3=
EXTT4=
EXTT5=
EXTT6=
EXTT7=
EXTT8=
EXTT9=
EXTT10=
EXTT11=
EXTT12=
EXTT13=
EXTT14=
EXTT15=
EXTT16=
EXTT17=
EXTT18=
EXTT19=
EXTT20=
EXTT21=
PLAYORDER=
